/* XPM */
static char *result[] = {
/* columns rows colors chars-per-pixel */
"16 16 7 1 ",
"  c #DCE1E7",
". c #B47253",
"X c #959AB1",
"o c #11A5D4",
"O c #2CC5F6",
"+ c #CB815E",
"@ c #345551",
/* pixels */
"+@@@@@++++++++++",
"+@@@@@@@+@@@@@@+",
"+@@ @@@@@@@@@@@+",
"+@@ OOO@@@OOO@@+",
"+@@XOOOoooOOO@@+",
"+@@XOOOoooOOO@@+",
"+@@XOOOoooOOO@@+",
"+@@XOOOoooOOO@@+",
"+@@X@@@ooo@@@@@+",
"+@@X@@@@@@@@@@@+",
"+@@X@@@@@@@+++++",
"+@@X@@++++++++++",
"+@@X@@++++++++++",
"+@@X@@++++++++++",
"+@@X@@.+.+.+.+.+",
"+@@X@@+.+.+.+.++"
};
