/* XPM */
static char *result[] = {
/* columns rows colors chars-per-pixel */
"16 16 4 1 ",
"  c white",
". c #FFBD20",
"X c #11A5D4",
"o c None",
/* pixels */
"oooooXXXoooooooo",
"ooooX X Xooooooo",
"ooooXXXXXXoooooo",
"oooooX Xoooooooo",
"oooXXoXXoooXXooo",
"oooXXoXXooXXXooo",
"oooXXoXXoXXXoooo",
"ooooXXXXXXoooooo",
"ooooXXXXXXoooooo",
"ooooXXXXXXoooooo",
"ooooXXXXXXoooooo",
"ooooXXXXXXoooooo",
"oooXXooooXXooooo",
"ooXXooooooXXoooo",
"oXXXooooooXXoooo",
"oooooooooooooooo"
};
