/* XPM */
static char *result[] = {
/* columns rows colors chars-per-pixel */
"16 16 3 1 ",
"  c #B47253",
". c #E08E67",
"X c #CB815E",
/* pixels */
"XXXXXXXXXXXXXXXX",
"XXXXXXXXXXXX XXX",
"XXXXXXXXX XXXXXX",
"XXXXXXXXXXXXXXXX",
"XXXXXXXXXXX  XXX",
"XXXXXXXXXXX  XXX",
"XXXXXXXXXXXXXXXX",
"XXXXXXXXXXXXXXXX",
"XXXXXXXXXXXXXXXX",
"XX.XXXXXXXXXXXXX",
"XXXXXXXXXXXXXXXX",
"XXX..XXXXXXXXXXX",
"XXX..XXXXXXXXXXX",
"XXXXXXXX.XXXXXXX",
"XX.XXXXXXXXXXXXX",
"XXXXXXXXXXXXXXXX"
};
